{"title":"Wir Sind Die Nacht *2010* [DVDRip.XviD-miguel] [ENG]","uid":6351662,"size":1389977558,"categoryP":"video","categoryS":"movies","magnet":"?xt=urn:btih:461eebcd5e802ea1f351265b2e62733ebe9565fa&amp;dn=Wir+Sind+Die+Nacht+%2A2010%2A+%5BDVDRip.XviD-miguel%5D+%5BENG%5D&amp;tr=udp%3A%2F%2Ftracker.openbittorrent.com%3A80&amp;tr=udp%3A%2F%2Fopen.demonii.com%3A1337&amp;tr=udp%3A%2F%2Ftracker.coppersurfer.tk%3A6969&amp;tr=udp%3A%2F%2Fexodus.desync.com%3A6969","seeders":2,"leechers":1,"uploader":"miguel1983","files":-1,"time":1304018924,"description":" &lt;a href=&quot;http://img215.imageshack.us/img215/3008/hauptplakat.jpg&quot; rel=&quot;nofollow&quot; target=&quot;_NEW&quot;&gt;http://img215.imageshack.us/img215/3008/hauptplakat.jpg&lt;/a&gt;\n\nCountry.......: Germany\nGenre.........: Fantasy, Horror, Romanse, Drama\nDate release..: 14.10.2010 [World]\nDirector......: Dennis Gansel\nWriters.......: Jan Berger, Dennis Gansel\nDuration......: 95 min.\nMore..........: http://www.imdb.com/title/tt1692504\nTrailer.......:\n\nPilot :\nOne fine evening, Lena are selected for the event. Then she meets the kolerzankÃ„â„¢ who likes her very much and promises of gold, clothes and hot drinks. Everything nice and beautiful, but one night kolerzanka it bites and it becomes a vampire. It will drink orange juice in order to survive, whether it succeed? Does no one will cross their path?\n\nCats :\nKaroline Herfurth   \t ...  \tLena\nNina Hoss \t... \tLouise\nJennifer Ulrich \t... \tCharlotte\nAnna Fischer \t... \tNora\nMax Riemelt \t... \tKommissar Tom Serner\nWalera Kanischtscheff \t... \tWasja\nSenta Dorothea Kirschner \t... \tSpusi Frau\nArved Birnbaum \t... \tKommissar Lummer\nSteffi KÃƒÂ¼hnert \t... \tLenas Mutter\nIvan Shvedoff \t... \tvan Gogh\nJochen Nickel \t... \tLenas Bewahrungshelfer\nNic Romm \t... \tOlsen\nChristian Nathe \t... \tWachmann 1\nTom Jahn \t... \tWachmann 2\nNeil Belakhdar \t... \tHotelpage \n\nData Technical :\n!!! SAMPLE !!!\nAudio.....: German\nSubtitles.: English .str, German .str\nFormat                           : AVI\nFormat/Info                      : Audio Video Interleave\nFile size                        : 1.28 GiB\nDuration                         : 1h 35mn\nOverall bit rate                 : 1 921 Kbps\nWriting application              : VirtualDubMod 1.5.10.2 (build 2542/release)\nWriting library                  : VirtualDubMod build 2542/release\nVideo\nID                               : 0\nFormat                           : MPEG-4 Visual\nFormat profile                   : Advanced Simple@L5\nFormat settings, BVOP            : Yes\nFormat settings, QPel            : Yes\nFormat settings, GMC             : 3 warppoints\nFormat settings, Matrix          : Default (MPEG)\nCodec ID                         : XVID\nCodec ID/Hint                    : XviD\nDuration                         : 1h 35mn\nBit rate                         : 1 463 Kbps\nWidth                            : 704 pixels\nHeight                           : 288 pixels\nDisplay aspect ratio             : 2.40:1\nFrame rate                       : 25.000 fps\nColor space                      : YUV\nChroma subsampling               : 4:2:0\nBit depth                        : 8 bits\nScan type                        : Progressive\nBits/(Pixel*Frame)               : 0.289\nStream size                      : 1 002 MiB (76%)\nWriting library                  : XviD 58\nAudio\nID                               : 1\nFormat                           : AC-3\nFormat/Info                      : Audio Coding 3\nMode extension                   : CM (complete main)\nCodec ID                         : 2000\nDuration                         : 1h 35mn\nBit rate mode                    : Constant\nBit rate                         : 448 Kbps\nChannel(s)                       : 6 channels\nChannel positions                : Front: L C R, Side: L R, LFE\nSampling rate                    : 48.0 KHz\nBit depth                        : 16 bits\nStream size                      : 307 MiB (23%)\nAlignment                        : Split accross interleaves\nInterleave, duration             : 40 ms (1.00 video frame)\nInterleave, preload duration     : 500 ms\n\nScreen : &lt;a href=&quot;\nhttp://img818.imageshack.us/img818/3561/wirsinddienacht2010s1.jpg&quot; rel=&quot;nofollow&quot; target=&quot;_NEW&quot;&gt;\nhttp://img818.imageshack.us/img818/3561/wirsinddienacht2010s1.jpg&lt;/a&gt; &lt;a href=&quot;\nhttp://img849.imageshack.us/img849/9317/wirsinddienacht2010s2.jpg&quot; rel=&quot;nofollow&quot; target=&quot;_NEW&quot;&gt;\nhttp://img849.imageshack.us/img849/9317/wirsinddienacht2010s2.jpg&lt;/a&gt; &lt;a href=&quot;\nhttp://img685.imageshack.us/img685/1535/wirsinddienacht2010s3.jpg&quot; rel=&quot;nofollow&quot; target=&quot;_NEW&quot;&gt;\nhttp://img685.imageshack.us/img685/1535/wirsinddienacht2010s3.jpg&lt;/a&gt; &lt;a href=&quot;\nhttp://img685.imageshack.us/img685/6393/wirsinddienacht2010s4.jpg&quot; rel=&quot;nofollow&quot; target=&quot;_NEW&quot;&gt;\nhttp://img685.imageshack.us/img685/6393/wirsinddienacht2010s4.jpg&lt;/a&gt; &lt;a href=&quot;\nhttp://img835.imageshack.us/img835/6679/wirsinddienacht2010s5.jpg&quot; rel=&quot;nofollow&quot; target=&quot;_NEW&quot;&gt;\nhttp://img835.imageshack.us/img835/6679/wirsinddienacht2010s5.jpg&lt;/a&gt;","torrent":{"xt":"urn:btih:461eebcd5e802ea1f351265b2e62733ebe9565fa","amp;dn":"Wir+Sind+Die+Nacht+%2A2010%2A+%5BDVDRip.XviD-miguel%5D+%5BENG%5D","amp;tr":["udp%3A%2F%2Ftracker.openbittorrent.com%3A80","udp%3A%2F%2Fopen.demonii.com%3A1337","udp%3A%2F%2Ftracker.coppersurfer.tk%3A6969","udp%3A%2F%2Fexodus.desync.com%3A6969"],"infoHash":"461eebcd5e802ea1f351265b2e62733ebe9565fa","infoHashBuffer":{"type":"Buffer","data":[70,30,235,205,94,128,46,161,243,81,38,91,46,98,115,62,190,149,101,250]},"announce":[],"urlList":[]}}